# This file uses centimeters as units for non-parametric coordinates.

mtllib hand_right1.mtl
g default
v 2.358863 8.455249 0.446529
v 2.083885 8.253733 0.070448
v 2.070580 7.780851 0.592521
v 2.272066 7.945198 0.702316
v 2.657259 8.495033 0.567905
v 1.864607 7.521637 0.020713
v 2.427825 7.695464 0.776940
v 2.405773 8.596305 -0.002001
v 2.344652 8.498039 -0.343275
v 2.117809 7.370180 0.461208
v 3.055590 8.420815 0.582583
v 3.174758 8.092852 0.604530
v 2.570049 8.616658 -0.307799
v 2.185314 8.174827 -0.490546
v 3.120579 8.553770 0.379210
v 2.073150 7.757068 -0.595712
v 2.029905 7.146285 0.089056
v 2.896456 7.348959 0.678075
v 2.779289 7.609310 0.763351
v 2.571209 8.393774 -0.615755
v 2.940513 8.655395 -0.017585
v 2.432838 8.058906 -0.733173
v 2.112522 7.409035 -0.552913
v 2.534125 7.029679 0.338391
v 3.099496 8.594411 -0.376924
v 3.204812 8.587856 -0.037147
v 3.675945 7.418000 0.458386
v 3.555691 8.001395 0.476531
v 3.131596 8.365143 -0.516126
v 3.393462 8.352662 0.107354
v 2.402774 7.678571 -0.768895
v 2.662316 7.125374 -0.559408
v 2.070839 7.269187 -0.415404
v 2.437233 6.973461 -0.207224
v 3.418007 7.172327 0.536330
v 3.556392 8.099811 -0.440691
v 3.526577 7.870610 -0.542783
v 2.966617 7.348937 -0.607531
v 2.954304 6.915618 0.267755
v 3.258357 7.000453 0.329376
v 3.706947 8.078457 0.184483
v 3.881464 7.705716 -0.325824
v 3.070337 6.996224 -0.432487
v 2.862594 6.884091 -0.288193
v 3.168434 6.850296 -0.193280
v 3.497745 7.324613 -0.110741
v 3.963603 7.678214 0.208396
v 3.441126 7.206278 -0.474187
v 3.687213 7.508918 -0.492392
vt 0.941909 0.759256
vt 0.943421 0.787588
vt 0.930547 0.760845
vt 0.955241 0.797416
vt 0.973459 0.751884
vt 0.976537 0.809617
vt 0.938625 0.724217
vt 0.970483 0.722305
vt 0.941533 0.739331
vt 0.935518 0.798279
vt 0.917162 0.761207
vt 0.952336 0.824154
vt 0.909746 0.769578
vt 0.914255 0.796107
vt 0.922676 0.740979
vt 0.916376 0.753509
vt 0.902088 0.807402
vt 0.938347 0.694849
vt 0.940365 0.709084
vt 0.927056 0.706994
vt 0.958691 0.673962
vt 0.933115 0.675431
vt 0.916603 0.731391
vt 0.931104 0.729547
vt 0.924321 0.694857
vt 0.913947 0.741065
vt 0.920173 0.628929
vt 0.960355 0.638699
vt 0.943273 0.655131
vt 0.901290 0.745845
vt 0.891935 0.762370
vt 0.874610 0.795308
vt 0.895319 0.726891
vt 0.927478 0.718465
vt 0.911472 0.677771
vt 0.902266 0.690554
vt 0.909946 0.840711
vt 0.871692 0.833822
vt 0.912494 0.725132
vt 0.889750 0.749461
vt 0.868953 0.754860
vt 0.863406 0.646833
vt 0.882027 0.635129
vt 0.883670 0.666094
vt 0.893124 0.675820
vt 0.898719 0.666088
vt 0.917228 0.660803
vt 0.840525 0.780967
vt 0.859157 0.816287
vt 0.874407 0.722414
vt 0.863283 0.743330
vt 0.878309 0.709288
vt 0.883040 0.689766
vt 0.858248 0.690230
vt 0.872222 0.775184
vt 0.933067 0.685036
vt 0.895482 0.718901
vn -0.542715 0.690419 0.478313
vn -0.413006 0.279704 0.866713
vn -0.122603 0.710320 0.693119
vn -0.792099 0.069700 0.606400
vn -0.879888 0.471894 0.055799
vn -0.996616 -0.076801 0.029300
vn -0.598481 0.711777 -0.367688
vn -0.879888 0.471894 0.055799
vn -0.445493 0.893385 0.058299
vn -0.445493 0.893385 0.058299
vn -0.542715 0.690419 0.478313
vn -0.122603 0.710320 0.693119
vn -0.122603 0.710320 0.693119
vn -0.192205 -0.132103 0.972423
vn 0.313792 0.517487 0.796079
vn -0.603366 -0.472973 0.642064
vn -0.792099 0.069700 0.606400
vn -0.996616 -0.076801 0.029300
vn 0.277413 0.126806 0.952346
vn -0.192205 -0.132103 0.972423
vn 0.110804 -0.056502 0.992235
vn -0.122603 0.710320 0.693119
vn 0.063000 0.996396 0.056800
vn -0.445493 0.893385 0.058299
vn 0.313792 0.517487 0.796079
vn 0.446615 0.793227 0.413914
vn -0.122603 0.710320 0.693119
vn -0.006500 -0.477111 0.878819
vn -0.192205 -0.132103 0.972423
vn -0.603366 -0.472973 0.642064
vn 0.110804 -0.056502 0.992235
vn -0.192205 -0.132103 0.972423
vn -0.006500 -0.477111 0.878819
vn -0.780699 0.106300 -0.615799
vn -0.756021 0.429512 -0.493914
vn -0.179292 0.254688 -0.950257
vn -0.996616 -0.076801 0.029300
vn -0.780699 0.106300 -0.615799
vn -0.696497 -0.544798 -0.466998
vn 0.063000 0.996396 0.056800
vn 0.322388 0.823970 -0.465983
vn -0.192190 0.928652 -0.317284
vn -0.780699 0.106300 -0.615799
vn -0.179292 0.254688 -0.950257
vn -0.153103 -0.104002 -0.982722
vn 0.063000 0.996396 0.056800
vn 0.446615 0.793227 0.413914
vn 0.546814 0.837221 0.007400
vn -0.245102 -0.829407 0.502004
vn -0.603366 -0.472973 0.642064
vn -0.695323 -0.700223 0.161905
vn 0.546814 0.837221 0.007400
vn 0.322388 0.823970 -0.465983
vn 0.063000 0.996396 0.056800
vn 0.446615 0.793227 0.413914
vn 0.313792 0.517487 0.796079
vn 0.716771 0.680273 0.153194
vn 0.555985 0.365990 0.746279
vn 0.313792 0.517487 0.796079
vn 0.277413 0.126806 0.952346
vn 0.446615 0.793227 0.413914
vn 0.716771 0.680273 0.153194
vn 0.546814 0.837221 0.007400
vn 0.110804 -0.056502 0.992235
vn -0.006500 -0.477111 0.878819
vn 0.483181 -0.600877 0.636775
vn 0.322388 0.823970 -0.465983
vn 0.546814 0.837221 0.007400
vn 0.645104 0.519303 -0.560504
vn 0.322388 0.823970 -0.465983
vn -0.140798 0.559492 -0.816789
vn -0.192190 0.928652 -0.317284
vn -0.110802 -0.599309 -0.792812
vn -0.153103 -0.104002 -0.982722
vn 0.160395 -0.258992 -0.952469
vn 0.483181 -0.600877 0.636775
vn -0.245102 -0.829407 0.502004
vn -0.035199 -0.908965 0.415384
vn 0.645104 0.519303 -0.560504
vn 0.546814 0.837221 0.007400
vn 0.716771 0.680273 0.153194
vn 0.322388 0.823970 -0.465983
vn 0.645104 0.519303 -0.560504
vn 0.287493 0.394690 -0.872678
vn 0.322388 0.823970 -0.465983
vn 0.287493 0.394690 -0.872678
vn -0.140798 0.559492 -0.816789
vn 0.746274 0.642578 0.173694
vn 0.555985 0.365990 0.746279
vn 0.965228 -0.092203 0.244607
vn 0.454702 -0.840404 0.294901
vn -0.035199 -0.908965 0.415384
vn 0.366697 -0.919191 -0.143599
vn 0.147703 -0.668915 -0.728517
vn -0.134301 -0.941005 -0.310602
vn -0.110802 -0.599309 -0.792812
vn -0.331392 -0.921176 -0.203995
vn -0.110802 -0.599309 -0.792812
vn -0.134301 -0.941005 -0.310602
vn 0.740118 -0.672416 -0.009100
vn 0.483181 -0.600877 0.636775
vn 0.454702 -0.840404 0.294901
vn 0.740118 -0.672416 -0.009100
vn 0.965228 -0.092203 0.244607
vn 0.483181 -0.600877 0.636775
vn 0.911081 0.005500 -0.412191
vn 0.965228 -0.092203 0.244607
vn 0.641086 -0.370192 -0.672285
vn -0.134301 -0.941005 -0.310602
vn 0.147703 -0.668915 -0.728517
vn 0.366697 -0.919191 -0.143599
vn 0.454702 -0.840404 0.294901
vn 0.366697 -0.919191 -0.143599
vn 0.578802 -0.581502 -0.571702
vn 0.740118 -0.672416 -0.009100
vn 0.641086 -0.370192 -0.672285
vn 0.965228 -0.092203 0.244607
vn 0.911081 0.005500 -0.412191
vn 0.641086 -0.370192 -0.672285
vn 0.645104 0.519303 -0.560504
vn 0.555985 0.365990 0.746279
vn 0.746274 0.642578 0.173694
vn 0.716771 0.680273 0.153194
vn 0.313792 0.517487 0.796079
vn 0.555985 0.365990 0.746279
vn 0.110804 -0.056502 0.992235
vn 0.678703 -0.377102 0.630203
vn -0.695323 -0.700223 0.161905
vn -0.696497 -0.544798 -0.466998
vn -0.331392 -0.921176 -0.203995
vn -0.792099 0.069700 0.606400
vn -0.542715 0.690419 0.478313
vn -0.879888 0.471894 0.055799
vn -0.413006 0.279704 0.866713
vn -0.542715 0.690419 0.478313
vn -0.792099 0.069700 0.606400
vn -0.445493 0.893385 0.058299
vn -0.879888 0.471894 0.055799
vn -0.542715 0.690419 0.478313
vn -0.413006 0.279704 0.866713
vn -0.192205 -0.132103 0.972423
vn -0.122603 0.710320 0.693119
vn -0.603366 -0.472973 0.642064
vn -0.192205 -0.132103 0.972423
vn -0.792099 0.069700 0.606400
vn -0.792099 0.069700 0.606400
vn -0.192205 -0.132103 0.972423
vn -0.413006 0.279704 0.866713
vn -0.756021 0.429512 -0.493914
vn -0.879888 0.471894 0.055799
vn -0.598481 0.711777 -0.367688
vn -0.192190 0.928652 -0.317284
vn -0.598481 0.711777 -0.367688
vn -0.445493 0.893385 0.058299
vn 0.313792 0.517487 0.796079
vn -0.192205 -0.132103 0.972423
vn 0.277413 0.126806 0.952346
vn -0.122603 0.710320 0.693119
vn 0.446615 0.793227 0.413914
vn 0.063000 0.996396 0.056800
vn -0.695323 -0.700223 0.161905
vn -0.603366 -0.472973 0.642064
vn -0.996616 -0.076801 0.029300
vn -0.445493 0.893385 0.058299
vn 0.063000 0.996396 0.056800
vn -0.192190 0.928652 -0.317284
vn -0.598481 0.711777 -0.367688
vn -0.140798 0.559492 -0.816789
vn -0.756021 0.429512 -0.493914
vn -0.996616 -0.076801 0.029300
vn -0.756021 0.429512 -0.493914
vn -0.780699 0.106300 -0.615799
vn -0.245102 -0.829407 0.502004
vn -0.006500 -0.477111 0.878819
vn -0.603366 -0.472973 0.642064
vn -0.140798 0.559492 -0.816789
vn -0.598481 0.711777 -0.367688
vn -0.192190 0.928652 -0.317284
vn -0.179292 0.254688 -0.950257
vn -0.756021 0.429512 -0.493914
vn -0.140798 0.559492 -0.816789
vn -0.696497 -0.544798 -0.466998
vn -0.780699 0.106300 -0.615799
vn -0.608402 -0.356001 -0.709302
vn -0.695323 -0.700223 0.161905
vn -0.996616 -0.076801 0.029300
vn -0.696497 -0.544798 -0.466998
vn 0.110804 -0.056502 0.992235
vn 0.555985 0.365990 0.746279
vn 0.277413 0.126806 0.952346
vn -0.140798 0.559492 -0.816789
vn 0.287493 0.394690 -0.872678
vn -0.179292 0.254688 -0.950257
vn -0.153103 -0.104002 -0.982722
vn -0.608402 -0.356001 -0.709302
vn -0.780699 0.106300 -0.615799
vn -0.153103 -0.104002 -0.982722
vn -0.110802 -0.599309 -0.792812
vn -0.608402 -0.356001 -0.709302
vn -0.331392 -0.921176 -0.203995
vn -0.245102 -0.829407 0.502004
vn -0.695323 -0.700223 0.161905
vn 0.483181 -0.600877 0.636775
vn -0.006500 -0.477111 0.878819
vn -0.245102 -0.829407 0.502004
vn -0.153103 -0.104002 -0.982722
vn -0.179292 0.254688 -0.950257
vn 0.287493 0.394690 -0.872678
vn -0.035199 -0.908965 0.415384
vn -0.245102 -0.829407 0.502004
vn -0.331392 -0.921176 -0.203995
vn -0.134301 -0.941005 -0.310602
vn -0.110802 -0.599309 -0.792812
vn -0.696497 -0.544798 -0.466998
vn -0.608402 -0.356001 -0.709302
vn 0.423609 0.146503 -0.893920
vn -0.153103 -0.104002 -0.982722
vn 0.287493 0.394690 -0.872678
vn 0.160395 -0.258992 -0.952469
vn -0.153103 -0.104002 -0.982722
vn 0.423609 0.146503 -0.893920
vn 0.716771 0.680273 0.153194
vn 0.746274 0.642578 0.173694
vn 0.645104 0.519303 -0.560504
vn 0.454702 -0.840404 0.294901
vn 0.483181 -0.600877 0.636775
vn -0.035199 -0.908965 0.415384
vn 0.423609 0.146503 -0.893920
vn 0.287493 0.394690 -0.872678
vn 0.645104 0.519303 -0.560504
vn 0.911081 0.005500 -0.412191
vn 0.645104 0.519303 -0.560504
vn 0.746274 0.642578 0.173694
vn 0.160395 -0.258992 -0.952469
vn 0.147703 -0.668915 -0.728517
vn -0.110802 -0.599309 -0.792812
vn -0.331392 -0.921176 -0.203995
vn -0.696497 -0.544798 -0.466998
vn -0.110802 -0.599309 -0.792812
vn 0.965228 -0.092203 0.244607
vn 0.678703 -0.377102 0.630203
vn 0.483181 -0.600877 0.636775
vn 0.911081 0.005500 -0.412191
vn 0.746274 0.642578 0.173694
vn 0.965228 -0.092203 0.244607
vn 0.366697 -0.919191 -0.143599
vn -0.035199 -0.908965 0.415384
vn -0.134301 -0.941005 -0.310602
vn 0.160395 -0.258992 -0.952469
vn 0.578802 -0.581502 -0.571702
vn 0.147703 -0.668915 -0.728517
vn 0.645104 0.519303 -0.560504
vn 0.641086 -0.370192 -0.672285
vn 0.423609 0.146503 -0.893920
vn 0.641086 -0.370192 -0.672285
vn 0.160395 -0.258992 -0.952469
vn 0.423609 0.146503 -0.893920
vn 0.578802 -0.581502 -0.571702
vn 0.366697 -0.919191 -0.143599
vn 0.147703 -0.668915 -0.728517
vn 0.740118 -0.672416 -0.009100
vn 0.454702 -0.840404 0.294901
vn 0.578802 -0.581502 -0.571702
vn 0.641086 -0.370192 -0.672285
vn 0.578802 -0.581502 -0.571702
vn 0.160395 -0.258992 -0.952469
vn 0.641086 -0.370192 -0.672285
vn 0.740118 -0.672416 -0.009100
vn 0.578802 -0.581502 -0.571702
vn -0.996616 -0.076801 0.029300
vn -0.879888 0.471894 0.055799
vn -0.756021 0.429512 -0.493914
vn 0.678703 -0.377102 0.630203
vn 0.110804 -0.056502 0.992235
vn 0.483181 -0.600877 0.636775
vn 0.678703 -0.377102 0.630203
vn 0.965228 -0.092203 0.244607
vn 0.555985 0.365990 0.746279
s off
g hand_right1:Mesh
usemtl hand_right1:STONE
f 1/1/1 4/2/2 5/3/3
f 3/4/4 2/5/5 6/6/6
f 9/7/7 2/8/8 8/9/9
f 8/9/10 1/1/11 5/3/12
f 5/3/13 7/10/14 11/11/15
f 10/12/16 3/4/17 6/6/18
f 12/13/19 7/10/20 19/14/21
f 5/3/22 21/15/23 8/9/24
f 11/11/25 15/16/26 5/3/27
f 18/17/28 7/10/29 10/12/30
f 19/14/31 7/10/32 18/17/33
f 16/18/34 14/19/35 22/20/36
f 6/21/37 16/18/38 33/22/39
f 21/15/40 25/23/41 13/24/42
f 16/18/43 22/20/44 31/25/45
f 21/15/46 15/16/47 26/26/48
f 24/27/49 10/28/50 17/29/51
f 26/26/52 25/23/53 21/15/54
f 15/16/55 11/11/56 30/30/57
f 28/31/58 11/11/59 12/13/60
f 15/16/61 30/30/62 26/26/63
f 19/14/64 18/17/65 35/32/66
f 25/23/67 26/26/68 36/33/69
f 25/23/70 20/34/71 13/24/72
f 32/35/73 31/25/74 38/36/75
f 35/32/76 24/37/77 39/38/78
f 36/33/79 26/26/80 30/30/81
f 25/23/82 36/33/83 29/39/84
f 25/23/85 29/39/86 20/34/87
f 41/40/88 28/31/89 47/41/90
f 40/42/91 39/43/92 45/44/93
f 43/45/94 44/46/95 32/35/96
f 34/47/97 32/35/98 44/46/99
f 46/48/100 35/32/101 40/49/102
f 46/48/103 47/41/104 35/32/105
f 42/50/106 47/51/107 49/52/108
f 44/46/109 43/45/110 45/44/111
f 40/42/112 45/44/113 48/53/114
f 46/54/115 49/52/116 47/51/117
f 42/50/118 49/52/119 36/33/120
f 28/31/121 41/40/122 30/30/123 11/11/124
f 28/31/125 19/14/126 27/55/127
f 17/29/128 33/22/129 34/47/130
f 3/4/131 1/1/132 2/5/133
f 4/2/134 1/1/135 3/4/136
f 8/9/137 2/8/138 1/1/139
f 4/2/140 7/10/141 5/3/142
f 10/12/143 7/10/144 3/4/145
f 3/4/146 7/10/147 4/2/148
f 14/19/149 2/8/150 9/7/151
f 13/24/152 9/7/153 8/9/154
f 11/11/155 7/10/156 12/13/157
f 5/3/158 15/16/159 21/15/160
f 17/29/161 10/28/162 6/21/163
f 8/9/164 21/15/165 13/24/166
f 9/7/167 20/34/168 14/19/169
f 6/21/170 14/19/171 16/18/172
f 24/37/173 18/17/174 10/12/175
f 20/34/176 9/7/177 13/24/178
f 22/20/179 14/19/180 20/34/181
f 33/22/182 16/18/183 23/56/184
f 17/29/185 6/21/186 33/22/187
f 19/14/188 28/31/189 12/13/190
f 20/34/191 29/39/192 22/20/193
f 31/25/194 23/56/195 16/18/196
f 31/25/197 32/35/198 23/56/199
f 34/47/200 24/27/201 17/29/202
f 35/32/203 18/17/204 24/37/205
f 31/25/206 22/20/207 29/39/208
f 39/43/209 24/27/210 34/47/211 44/46/212
f 32/35/213 33/22/214 23/56/215
f 37/57/216 31/25/217 29/39/218
f 38/36/219 31/25/220 37/57/221
f 30/30/222 41/40/223 36/33/224
f 40/49/225 35/32/226 39/38/227
f 37/57/228 29/39/229 36/33/230
f 42/50/231 36/33/232 41/40/233
f 38/36/234 43/45/235 32/35/236
f 34/47/237 33/22/238 32/35/239
f 47/41/240 27/55/241 35/32/242
f 42/50/243 41/40/244 47/51/245
f 45/44/246 39/43/247 44/46/248
f 38/36/249 48/53/250 43/45/251
f 36/33/252 49/52/253 37/57/254
f 49/52/255 38/36/256 37/57/257
f 48/53/258 45/44/259 43/45/260
f 46/54/261 40/42/262 48/53/263
f 49/52/264 48/53/265 38/36/266
f 49/52/267 46/54/268 48/53/269
f 6/21/270 2/8/271 14/19/272
f 27/55/273 19/14/274 35/32/275
f 27/55/276 47/41/277 28/31/278
