# This file uses centimeters as units for non-parametric coordinates.

mtllib hand_left2.mtl
g default
v -2.736198 6.841824 0.051555
v -2.975811 6.841662 0.300015
v -3.487772 7.227246 0.396191
v -2.787735 6.530307 0.238905
v -2.770449 6.896861 -0.300377
v -3.485602 7.468153 0.059161
v -3.481497 7.409552 0.232692
v -2.951321 6.173213 0.359844
v -3.335463 7.291249 -0.357485
v -3.765109 6.782669 0.529445
v -2.689326 6.486376 0.054762
v -2.670446 6.642939 -0.465567
v -2.981935 6.912269 -0.663472
v -3.938334 7.421077 0.269095
v -4.023881 7.222839 0.410258
v -3.700798 7.218845 -0.741109
v -3.805219 7.454235 -0.345679
v -3.855895 7.505907 -0.050048
v -3.894449 5.877644 0.486227
v -2.842494 6.221566 -0.519601
v -3.038546 6.752062 -0.819935
v -4.079298 6.694847 0.549615
v -3.325774 5.577977 0.310820
v -3.181034 6.399196 -0.894371
v -2.995663 6.500617 -0.828439
v -3.582086 6.767387 -0.896272
v -3.843184 7.139267 -0.872201
v -4.071189 7.434505 -0.153576
v -4.375984 6.978017 0.148121
v -4.268979 6.325355 0.520466
v -2.851851 6.152400 0.106346
v -4.125985 7.347649 -0.509149
v -3.063069 6.101842 -0.708453
v -3.674590 5.348701 0.408628
v -3.942500 7.034510 -0.884139
v -4.100335 7.115415 -0.736762
v -4.471313 5.436411 0.498115
v -3.494409 5.262770 -0.400816
v -3.951113 5.212147 0.291461
v -3.773963 5.912813 -0.863116
v -4.529874 6.679176 -0.305802
v -4.635167 6.220420 0.365406
v -3.550258 5.223709 -0.084054
v -3.785545 5.098933 -0.184575
v -4.240942 6.214561 -0.699101
v -4.100102 5.834662 -0.804879
v -4.806209 6.032015 0.090453
v -4.677999 5.596510 0.435874
v -3.985235 5.125455 -0.199232
v -3.576382 5.290990 -0.536598
v -4.851793 5.679972 0.157649
v -4.771803 5.539432 0.183533
v -3.858384 5.136071 -0.548816
v -4.892944 5.708450 -0.161866
v -4.335382 5.606431 -0.759309
v -4.750478 5.923110 -0.370370
v -4.659373 5.444457 -0.281502
v -4.444554 5.370122 -0.599991
v -4.710711 5.655713 -0.501691
vt 0.144444 0.767528
vt 0.122838 0.811372
vt 0.131852 0.777937
vt 0.130405 0.817989
vt 0.166066 0.763944
vt 0.157623 0.827734
vt 0.137944 0.826201
vt 0.155298 0.742692
vt 0.124775 0.879167
vt 0.149467 0.873910
vt 0.144365 0.920666
vt 0.130798 0.855308
vt 0.139806 0.721746
vt 0.132187 0.751583
vt 0.113520 0.741788
vt 0.125949 0.840777
vt 0.109578 0.922420
vt 0.130608 0.923713
vt 0.121849 0.934607
vt 0.112817 0.904322
vt 0.073336 0.785009
vt 0.104366 0.805898
vt 0.080142 0.812066
vt 0.108309 0.757934
vt 0.056796 0.764411
vt 0.117807 0.879899
vt 0.098172 0.836016
vt 0.118232 0.829679
vt 0.116719 0.845903
vt 0.111410 0.879901
vt 0.102551 0.950154
vt 0.089020 0.855278
vt 0.114794 0.860696
vt 0.046110 0.799732
vt 0.043207 0.735374
vt 0.072663 0.748377
vt 0.075792 0.916543
vt 0.064738 0.901095
vt 0.110181 0.870354
vt 0.043319 0.773011
vt 0.022040 0.766724
vt 0.026928 0.749325
vt 0.075913 0.884885
vt 0.048127 0.813839
vt 0.026513 0.964688
vt 0.017988 0.942886
vt 0.041850 0.954998
vt 0.044795 0.942983
vt 0.047703 0.896855
vt 0.054157 0.861157
vt 0.070072 0.825303
vt 0.045314 0.829138
vt 0.058483 0.838228
vt 0.036795 0.894794
vt 0.036216 0.929793
vt 0.038896 0.850647
vt 0.019774 0.828689
vt 0.040252 0.821310
vt 0.043895 0.874455
vt 0.025363 0.872745
vt 0.126289 0.761430
vt 0.110898 0.824284
vt 0.166074 0.933608
vt 0.095615 0.814370
vt 0.145772 0.953253
vt 0.116261 0.968416
vt 0.081705 0.986093
vt 0.015508 0.925456
vt 0.011995 0.782016
vn 0.830637 0.461521 0.311514
vn 0.276112 0.435619 0.856737
vn 0.501316 0.346111 0.793025
vn 0.276112 0.435619 0.856737
vn 0.830637 0.461521 0.311514
vn 0.333095 0.791389 0.512593
vn 0.763079 0.628683 -0.149896
vn 0.444283 0.836868 -0.319788
vn 0.350116 0.933943 0.071903
vn 0.936869 0.083397 -0.339589
vn 0.763079 0.628683 -0.149896
vn 0.830637 0.461521 0.311514
vn 0.220996 0.777487 -0.588790
vn 0.444283 0.836868 -0.319788
vn 0.560702 0.615202 -0.554202
vn 0.350116 0.933943 0.071903
vn 0.444283 0.836868 -0.319788
vn 0.034599 0.941585 -0.334995
vn 0.838416 -0.424208 -0.342207
vn 0.961970 -0.171395 0.212693
vn 0.861782 -0.471990 0.185896
vn 0.034599 0.941585 -0.334995
vn -0.100602 0.994422 0.031701
vn 0.350116 0.933943 0.071903
vn 0.244593 -0.143996 -0.958874
vn 0.447500 0.307100 -0.839901
vn 0.575803 -0.079600 -0.813704
vn -0.000500 0.046201 -0.998932
vn 0.447500 0.307100 -0.839901
vn 0.244593 -0.143996 -0.958874
vn 0.101200 -0.067100 0.992601
vn 0.112397 0.103397 0.988269
vn -0.230608 0.081403 0.969636
vn 0.590210 -0.237204 0.771613
vn 0.101200 -0.067100 0.992601
vn 0.349502 -0.552903 0.756404
vn 0.447500 0.307100 -0.839901
vn -0.000500 0.046201 -0.998932
vn -0.017600 0.547509 -0.836614
vn 0.034599 0.941585 -0.334995
vn 0.220996 0.777487 -0.588790
vn -0.017600 0.547509 -0.836614
vn -0.822191 0.501694 0.268897
vn -0.302684 0.814058 0.495674
vn -0.574311 0.818615 -0.006000
vn -0.342582 0.165191 -0.924851
vn -0.017600 0.547509 -0.836614
vn -0.000500 0.046201 -0.998932
vn 0.566603 -0.430802 -0.702404
vn 0.244593 -0.143996 -0.958874
vn 0.575803 -0.079600 -0.813704
vn -0.888518 0.386108 -0.247905
vn -0.574311 0.818615 -0.006000
vn -0.565300 0.738000 -0.368500
vn -0.888518 0.386108 -0.247905
vn -0.822191 0.501694 0.268897
vn -0.574311 0.818615 -0.006000
vn 0.101200 -0.067100 0.992601
vn -0.309003 -0.579906 0.753808
vn 0.349502 -0.552903 0.756404
vn 0.349502 -0.552903 0.756404
vn 0.574599 -0.801999 0.163200
vn 0.653705 -0.569004 0.498904
vn 0.040900 -0.227599 -0.972896
vn -0.248012 0.054103 -0.967245
vn -0.000500 0.046201 -0.998932
vn -0.565300 0.738000 -0.368500
vn -0.582077 0.459182 -0.671073
vn -0.888518 0.386108 -0.247905
vn -0.309003 -0.579906 0.753808
vn -0.009800 -0.894224 0.447512
vn 0.349502 -0.552903 0.756404
vn -0.009800 -0.894224 0.447512
vn -0.280907 -0.959224 0.031301
vn 0.176796 -0.982878 0.051899
vn -0.582077 0.459182 -0.671073
vn -0.342582 0.165191 -0.924851
vn -0.468774 0.089695 -0.878752
vn -0.230608 0.081403 0.969636
vn -0.646924 -0.238409 0.724327
vn -0.309003 -0.579906 0.753808
vn -0.280907 -0.959224 0.031301
vn -0.009800 -0.894224 0.447512
vn -0.309003 -0.579906 0.753808
vn 0.574599 -0.801999 0.163200
vn 0.176796 -0.982878 0.051899
vn 0.643191 -0.736290 -0.210197
vn 0.040900 -0.227599 -0.972896
vn 0.418102 -0.626803 -0.657503
vn -0.305695 -0.185497 -0.933885
vn -0.468774 0.089695 -0.878752
vn -0.811042 0.231512 -0.537228
vn -0.582077 0.459182 -0.671073
vn -0.721773 0.264790 0.639476
vn -0.940794 -0.191799 0.279498
vn -0.646924 -0.238409 0.724327
vn -0.305695 -0.185497 -0.933885
vn -0.248012 0.054103 -0.967245
vn 0.040900 -0.227599 -0.972896
vn -0.943788 0.286196 0.165398
vn -0.940794 -0.191799 0.279498
vn -0.721773 0.264790 0.639476
vn -0.462506 -0.680609 -0.568207
vn -0.305695 -0.185497 -0.933885
vn 0.053499 -0.808187 -0.586491
vn -0.972985 -0.163697 -0.162798
vn -0.940794 -0.191799 0.279498
vn -0.943788 0.286196 0.165398
vn -0.636193 -0.759592 -0.135199
vn -0.309003 -0.579906 0.753808
vn -0.692397 -0.699697 0.176099
vn -0.754965 -0.161093 -0.635671
vn -0.305695 -0.185497 -0.933885
vn -0.462506 -0.680609 -0.568207
vn -0.754965 -0.161093 -0.635671
vn -0.636193 -0.759592 -0.135199
vn -0.972985 -0.163697 -0.162798
vn -0.646924 -0.238409 0.724327
vn -0.940794 -0.191799 0.279498
vn -0.692397 -0.699697 0.176099
vn 0.112397 0.103397 0.988269
vn 0.590210 -0.237204 0.771613
vn 0.501316 0.346111 0.793025
vn 0.276112 0.435619 0.856737
vn 0.501316 0.346111 0.793025
vn 0.736290 0.015400 0.676491
vn 0.830637 0.461521 0.311514
vn 0.763079 0.628683 -0.149896
vn 0.350116 0.933943 0.071903
vn 0.830637 0.461521 0.311514
vn 0.333095 0.791389 0.512593
vn 0.830637 0.461521 0.311514
vn 0.350116 0.933943 0.071903
vn 0.276112 0.435619 0.856737
vn 0.333095 0.791389 0.512593
vn -0.302684 0.814058 0.495674
vn -0.369087 0.507082 0.778873
vn 0.736290 0.015400 0.676491
vn 0.501316 0.346111 0.793025
vn 0.590210 -0.237204 0.771613
vn 0.830637 0.461521 0.311514
vn 0.961970 -0.171395 0.212693
vn 0.936869 0.083397 -0.339589
vn 0.763079 0.628683 -0.149896
vn 0.560702 0.615202 -0.554202
vn 0.444283 0.836868 -0.319788
vn 0.736290 0.015400 0.676491
vn 0.590210 -0.237204 0.771613
vn 0.861782 -0.471990 0.185896
vn 0.961970 -0.171395 0.212693
vn -0.302684 0.814058 0.495674
vn 0.333095 0.791389 0.512593
vn 0.350116 0.933943 0.071903
vn -0.100602 0.994422 0.031701
vn 0.276112 0.435619 0.856737
vn -0.369087 0.507082 0.778873
vn -0.176298 0.111599 0.977990
vn 0.112397 0.103397 0.988269
vn 0.101200 -0.067100 0.992601
vn 0.590210 -0.237204 0.771613
vn 0.112397 0.103397 0.988269
vn 0.936869 0.083397 -0.339589
vn 0.961970 -0.171395 0.212693
vn 0.838416 -0.424208 -0.342207
vn 0.936869 0.083397 -0.339589
vn 0.560702 0.615202 -0.554202
vn 0.763079 0.628683 -0.149896
vn 0.447500 0.307100 -0.839901
vn 0.220996 0.777487 -0.588790
vn 0.560702 0.615202 -0.554202
vn 0.034599 0.941585 -0.334995
vn -0.565300 0.738000 -0.368500
vn -0.574311 0.818615 -0.006000
vn -0.100602 0.994422 0.031701
vn 0.220996 0.777487 -0.588790
vn 0.447500 0.307100 -0.839901
vn -0.017600 0.547509 -0.836614
vn 0.220996 0.777487 -0.588790
vn 0.034599 0.941585 -0.334995
vn 0.444283 0.836868 -0.319788
vn -0.574311 0.818615 -0.006000
vn -0.302684 0.814058 0.495674
vn -0.100602 0.994422 0.031701
vn -0.369087 0.507082 0.778873
vn -0.302684 0.814058 0.495674
vn -0.822191 0.501694 0.268897
vn 0.861782 -0.471990 0.185896
vn 0.590210 -0.237204 0.771613
vn 0.653705 -0.569004 0.498904
vn 0.575803 -0.079600 -0.813704
vn 0.447500 0.307100 -0.839901
vn 0.936869 0.083397 -0.339589
vn 0.936869 0.083397 -0.339589
vn 0.838416 -0.424208 -0.342207
vn 0.566603 -0.430802 -0.702404
vn 0.575803 -0.079600 -0.813704
vn -0.230608 0.081403 0.969636
vn 0.112397 0.103397 0.988269
vn -0.176298 0.111599 0.977990
vn -0.017600 0.547509 -0.836614
vn -0.582077 0.459182 -0.671073
vn -0.565300 0.738000 -0.368500
vn 0.034599 0.941585 -0.334995
vn 0.653705 -0.569004 0.498904
vn 0.590210 -0.237204 0.771613
vn 0.349502 -0.552903 0.756404
vn 0.040900 -0.227599 -0.972896
vn -0.000500 0.046201 -0.998932
vn 0.244593 -0.143996 -0.958874
vn -0.230608 0.081403 0.969636
vn -0.176298 0.111599 0.977990
vn -0.369087 0.507082 0.778873
vn -0.721773 0.264790 0.639476
vn 0.574599 -0.801999 0.163200
vn 0.861782 -0.471990 0.185896
vn 0.653705 -0.569004 0.498904
vn 0.838416 -0.424208 -0.342207
vn 0.861782 -0.471990 0.185896
vn 0.643191 -0.736290 -0.210197
vn -0.582077 0.459182 -0.671073
vn -0.017600 0.547509 -0.836614
vn -0.342582 0.165191 -0.924851
vn -0.822191 0.501694 0.268897
vn -0.721773 0.264790 0.639476
vn -0.369087 0.507082 0.778873
vn 0.349502 -0.552903 0.756404
vn -0.009800 -0.894224 0.447512
vn 0.176796 -0.982878 0.051899
vn 0.574599 -0.801999 0.163200
vn -0.230608 0.081403 0.969636
vn -0.309003 -0.579906 0.753808
vn 0.101200 -0.067100 0.992601
vn 0.838416 -0.424208 -0.342207
vn 0.643191 -0.736290 -0.210197
vn 0.566603 -0.430802 -0.702404
vn 0.053499 -0.808187 -0.586491
vn 0.418102 -0.626803 -0.657503
vn 0.643191 -0.736290 -0.210197
vn 0.176796 -0.982878 0.051899
vn 0.040900 -0.227599 -0.972896
vn 0.244593 -0.143996 -0.958874
vn 0.566603 -0.430802 -0.702404
vn -0.468774 0.089695 -0.878752
vn -0.342582 0.165191 -0.924851
vn -0.000500 0.046201 -0.998932
vn 0.861782 -0.471990 0.185896
vn 0.574599 -0.801999 0.163200
vn 0.643191 -0.736290 -0.210197
vn 0.040900 -0.227599 -0.972896
vn 0.566603 -0.430802 -0.702404
vn 0.418102 -0.626803 -0.657503
vn -0.000500 0.046201 -0.998932
vn -0.248012 0.054103 -0.967245
vn -0.468774 0.089695 -0.878752
vn -0.943788 0.286196 0.165398
vn -0.822191 0.501694 0.268897
vn -0.888518 0.386108 -0.247905
vn -0.943788 0.286196 0.165398
vn -0.721773 0.264790 0.639476
vn -0.822191 0.501694 0.268897
vn -0.721773 0.264790 0.639476
vn -0.646924 -0.238409 0.724327
vn -0.230608 0.081403 0.969636
vn 0.418102 -0.626803 -0.657503
vn 0.566603 -0.430802 -0.702404
vn 0.643191 -0.736290 -0.210197
vn -0.582077 0.459182 -0.671073
vn -0.811042 0.231512 -0.537228
vn -0.888518 0.386108 -0.247905
vn -0.309003 -0.579906 0.753808
vn -0.646924 -0.238409 0.724327
vn -0.692397 -0.699697 0.176099
vn -0.636193 -0.759592 -0.135199
vn -0.462506 -0.680609 -0.568207
vn 0.053499 -0.808187 -0.586491
vn -0.280907 -0.959224 0.031301
vn 0.418102 -0.626803 -0.657503
vn 0.053499 -0.808187 -0.586491
vn -0.305695 -0.185497 -0.933885
vn -0.888518 0.386108 -0.247905
vn -0.972985 -0.163697 -0.162798
vn -0.943788 0.286196 0.165398
vn -0.309003 -0.579906 0.753808
vn -0.636193 -0.759592 -0.135199
vn -0.280907 -0.959224 0.031301
vn 0.053499 -0.808187 -0.586491
vn 0.176796 -0.982878 0.051899
vn -0.280907 -0.959224 0.031301
vn -0.305695 -0.185497 -0.933885
vn -0.468774 0.089695 -0.878752
vn -0.248012 0.054103 -0.967245
vn -0.888518 0.386108 -0.247905
vn -0.811042 0.231512 -0.537228
vn -0.972985 -0.163697 -0.162798
vn -0.636193 -0.759592 -0.135199
vn -0.692397 -0.699697 0.176099
vn -0.940794 -0.191799 0.279498
vn -0.972985 -0.163697 -0.162798
vn -0.754965 -0.161093 -0.635671
vn -0.468774 0.089695 -0.878752
vn -0.305695 -0.185497 -0.933885
vn -0.754965 -0.161093 -0.635671
vn -0.811042 0.231512 -0.537228
vn -0.468774 0.089695 -0.878752
vn -0.972985 -0.163697 -0.162798
vn -0.811042 0.231512 -0.537228
vn -0.754965 -0.161093 -0.635671
vn -0.754965 -0.161093 -0.635671
vn -0.462506 -0.680609 -0.568207
vn -0.636193 -0.759592 -0.135199
vn 0.830637 0.461521 0.311514
vn 0.736290 0.015400 0.676491
vn 0.961970 -0.171395 0.212693
vn 0.560702 0.615202 -0.554202
vn 0.936869 0.083397 -0.339589
vn 0.447500 0.307100 -0.839901
s off
g hand_left2:Mesh
usemtl hand_left2:STONE
f 1/1/1 3/2/2 2/3/3
f 3/2/4 1/1/5 7/4/6
f 5/5/7 9/6/8 6/7/9
f 12/8/10 5/5/11 1/1/12
f 16/9/13 9/10/14 13/11/15
f 6/7/16 9/6/17 17/12/18
f 20/13/19 11/14/20 31/15/21
f 17/12/22 18/16/23 6/7/24
f 24/17/25 21/18/26 25/19/27
f 26/20/28 21/18/29 24/17/30
f 19/21/31 10/22/32 30/23/33
f 8/24/34 19/21/35 34/25/36
f 21/18/37 26/20/38 27/26/39
f 17/12/40 16/9/41 27/26/42
f 29/27/43 14/28/44 28/29/45
f 35/30/46 27/26/47 26/20/48
f 33/31/49 24/17/50 25/19/51
f 41/32/52 28/29/53 32/33/54
f 41/32/55 29/27/56 28/29/57
f 19/21/58 37/34/59 34/25/60
f 34/25/61 43/35/62 23/36/63
f 40/37/64 46/38/65 26/20/66
f 32/33/67 36/39/68 41/32/69
f 37/34/70 39/40/71 34/25/72
f 39/40/73 49/41/74 44/42/75
f 36/39/76 35/30/77 45/43/78
f 30/23/79 48/44/80 37/34/81
f 49/41/82 39/40/83 37/34/84
f 43/45/85 44/46/86 38/47/87
f 40/37/88 50/48/89 55/49/90
f 45/43/91 56/50/92 36/39/93
f 42/51/94 51/52/95 48/44/96
f 55/49/97 46/38/98 40/37/99
f 47/53/100 51/52/101 42/51/102
f 58/54/103 55/49/104 53/55/105
f 54/56/106 51/52/107 47/53/108
f 57/57/109 37/34/110 52/58/111
f 59/59/112 55/49/113 58/54/114
f 59/59/115 57/60/116 54/56/117
f 48/44/118 51/52/119 52/58/120
f 10/22/121 8/24/122 2/3/123 3/2/124
f 2/3/125 4/61/126 1/1/127
f 5/5/128 6/7/129 1/1/130
f 7/4/131 1/1/132 6/7/133
f 3/2/134 7/4/135 14/28/136 15/62/137
f 4/61/138 2/3/139 8/24/140
f 1/1/141 11/14/142 12/8/143
f 5/63/144 13/11/145 9/10/146
f 4/61/147 8/24/148 31/15/149 11/14/150
f 14/28/151 7/4/152 6/7/153 18/16/154
f 3/2/155 15/62/156 22/64/157 10/22/158
f 19/21/159 8/24/160 10/22/161
f 12/8/162 11/14/163 20/13/164
f 12/65/165 13/11/166 5/63/167
f 21/18/168 16/9/169 13/11/170
f 17/12/171 32/33/172 28/29/173 18/16/174
f 16/9/175 21/18/176 27/26/177
f 16/9/178 17/12/179 9/10/180
f 28/29/181 14/28/182 18/16/183
f 15/62/184 14/28/185 29/27/186
f 31/15/187 8/24/188 23/36/189
f 25/19/190 21/18/191 12/65/192
f 12/65/193 20/66/194 33/31/195 25/19/196
f 30/23/197 10/22/198 22/64/199
f 27/26/200 36/39/201 32/33/202 17/12/203
f 23/36/204 8/24/205 34/25/206
f 40/37/207 26/20/208 24/17/209
f 30/23/210 22/64/211 15/62/212 42/51/213
f 43/35/214 31/15/215 23/36/216
f 20/66/217 31/67/218 38/47/219
f 36/39/220 27/26/221 35/30/222
f 29/27/223 42/51/224 15/62/225
f 34/25/226 39/40/227 44/42/228 43/35/229
f 30/23/230 37/34/231 19/21/232
f 20/66/233 38/47/234 33/31/235
f 53/55/236 50/48/237 38/47/238 44/46/239
f 40/37/240 24/17/241 33/31/242
f 45/43/243 35/30/244 26/20/245
f 31/67/246 43/45/247 38/47/248
f 40/37/249 33/31/250 50/48/251
f 26/20/252 46/38/253 45/43/254
f 47/53/255 29/27/256 41/32/257
f 47/53/258 42/51/259 29/27/260
f 42/51/261 48/44/262 30/23/263
f 50/48/264 33/31/265 38/47/266
f 36/39/267 56/50/268 41/32/269
f 37/34/270 48/44/271 52/58/272
f 57/60/273 58/54/274 53/55/275 49/68/276
f 50/48/277 53/55/278 55/49/279
f 41/32/280 54/56/281 47/53/282
f 37/34/283 57/69/284 49/41/285
f 53/55/286 44/46/287 49/68/288
f 55/49/289 45/43/290 46/38/291
f 41/32/292 56/50/293 54/56/294
f 57/57/295 52/58/296 51/52/297 54/56/298
f 59/59/299 45/43/300 55/49/301
f 59/59/302 56/50/303 45/43/304
f 54/56/305 56/50/306 59/59/307
f 59/59/308 58/54/309 57/60/310
f 1/1/311 4/61/312 11/14/313
f 13/11/314 12/65/315 21/18/316
