# This file uses centimeters as units for non-parametric coordinates.

mtllib hand_right2.mtl
g default
v 3.948086 6.175687 -0.711831
v 4.155158 5.467160 -0.688310
v 4.458228 6.371581 -0.743956
v 4.699360 5.445463 -0.718421
v 3.144161 6.200626 -0.578949
v 4.335345 5.318545 -0.654713
v 3.732450 5.390901 -0.565088
v 3.798364 7.175075 -0.668033
v 4.801615 6.221569 -0.637633
v 4.887546 5.580250 -0.664322
v 3.744326 5.243802 -0.130813
v 4.269108 7.130816 -0.666429
v 4.441327 7.167129 -0.447983
v 4.124638 5.178082 -0.428972
v 2.951726 6.371038 -0.314442
v 4.998785 6.076730 -0.442571
v 4.228551 5.136127 0.035618
v 3.303442 5.842992 0.300610
v 2.961124 6.511135 -0.428014
v 3.146529 6.918698 -0.464066
v 3.643755 7.349763 -0.510225
v 4.738635 6.802198 -0.128964
v 5.097537 5.827760 -0.160199
v 5.067302 5.571162 -0.324559
v 3.983867 5.126010 -0.151091
v 3.004157 6.887970 -0.209433
v 3.666837 7.454533 -0.271543
v 4.743531 6.612143 0.156203
v 4.574626 5.280123 0.319430
v 2.989729 6.375086 0.277555
v 3.270049 6.211304 0.530023
v 4.062831 7.438047 -0.536301
v 3.065044 6.940419 0.127548
v 4.537617 6.388848 0.426728
v 5.051006 5.600494 0.028601
v 4.053176 5.141162 0.335074
v 3.736243 5.270777 0.229654
v 4.360885 5.348967 0.459577
v 2.873621 6.715860 -0.018857
v 3.925542 7.517225 -0.179446
v 4.461585 7.118711 0.239491
v 3.700780 7.361193 0.122176
v 4.797600 5.611203 0.407496
v 5.022538 5.763044 0.142817
v 4.489726 5.671206 0.545414
v 4.170393 7.502306 -0.190711
v 4.307102 7.422624 0.152249
v 4.315270 7.179732 0.504761
v 3.236367 6.513852 0.614292
v 3.790801 6.072734 0.669035
v 3.226552 6.909869 0.472565
v 4.079458 6.361862 0.623294
v 3.893789 7.017512 0.671009
v 2.985995 6.646580 0.395470
v 4.056151 7.264400 0.511464
v 3.553731 6.744930 0.675951
v 4.154364 7.063927 0.650530
vt 0.290753 0.895953
vt 0.284438 0.900626
vt 0.289293 0.879136
vt 0.267728 0.863355
vt 0.258783 0.875262
vt 0.281498 0.917213
vt 0.243039 0.925858
vt 0.255492 0.897414
vt 0.223395 0.881031
vt 0.288775 0.870608
vt 0.275421 0.853101
vt 0.297632 0.908139
vt 0.254220 0.980587
vt 0.297836 0.935653
vt 0.309684 0.956994
vt 0.214804 0.915753
vt 0.212230 0.881588
vt 0.232575 0.855009
vt 0.248019 0.841224
vt 0.325408 0.909906
vt 0.329874 0.880262
vt 0.225787 0.930676
vt 0.233623 0.865864
vt 0.253624 0.826860
vt 0.288584 0.844048
vt 0.296316 0.856846
vt 0.214403 0.974602
vt 0.229509 0.939161
vt 0.228004 0.728731
vt 0.240178 0.708832
vt 0.306757 0.726364
vt 0.219579 0.865907
vt 0.258968 0.807891
vt 0.295713 0.804214
vt 0.305325 0.776950
vt 0.315784 0.792670
vt 0.316349 0.752687
vt 0.206965 0.942954
vt 0.171243 0.869880
vt 0.201033 0.875177
vt 0.189619 0.929239
vt 0.287210 0.787937
vt 0.331858 0.768830
vt 0.205861 0.925843
vt 0.219732 0.833100
vt 0.303712 0.835011
vt 0.293027 0.827459
vt 0.202529 0.716375
vt 0.193446 0.960491
vt 0.247594 0.785178
vt 0.253817 0.757504
vt 0.191385 0.761861
vt 0.187623 0.819473
vt 0.171045 0.768714
vt 0.204928 0.855641
vt 0.183372 0.842960
vt 0.215214 0.850469
vt 0.230872 0.828141
vt 0.224060 0.816812
vt 0.213263 0.746879
vt 0.191622 0.731991
vt 0.223979 0.807030
vt 0.215507 0.768431
vt 0.214286 0.812297
vt 0.217316 0.793698
vt 0.307945 0.921179
vt 0.326505 0.930548
vt 0.319266 0.826593
vt 0.178670 0.946720
vn 0.022899 -0.692579 -0.720978
vn -0.139504 -0.319309 -0.937326
vn 0.324886 -0.571476 -0.753568
vn 0.598404 0.225502 -0.768805
vn 0.324886 -0.571476 -0.753568
vn 0.151406 0.077403 -0.985436
vn -0.504972 -0.583568 -0.635965
vn -0.619892 -0.285796 -0.730790
vn -0.139504 -0.319309 -0.937326
vn -0.115401 -0.024700 -0.993012
vn -0.619892 -0.285796 -0.730790
vn -0.174402 0.304804 -0.936311
vn -0.115401 -0.024700 -0.993012
vn -0.174402 0.304804 -0.936311
vn 0.151406 0.077403 -0.985436
vn 0.627197 -0.274999 -0.728697
vn 0.324886 -0.571476 -0.753568
vn 0.598404 0.225502 -0.768805
vn 0.598404 0.225502 -0.768805
vn 0.898301 0.242500 -0.366400
vn 0.627197 -0.274999 -0.728697
vn -0.016700 -0.914298 -0.404699
vn 0.022899 -0.692579 -0.720978
vn 0.324886 -0.571476 -0.753568
vn -0.747418 -0.553314 0.367709
vn -0.610086 -0.785782 -0.101698
vn -0.598571 -0.705966 0.378582
vn -0.626816 0.439011 -0.643716
vn -0.174402 0.304804 -0.936311
vn -0.619892 -0.285796 -0.730790
vn -0.174402 0.304804 -0.936311
vn -0.626816 0.439011 -0.643716
vn -0.411989 0.708082 -0.573485
vn 0.735604 0.567503 -0.369902
vn 0.891123 0.453712 -0.006800
vn 0.898301 0.242500 -0.366400
vn 0.324886 -0.571476 -0.753568
vn 0.242612 -0.970047 -0.012201
vn -0.016700 -0.914298 -0.404699
vn 0.453789 -0.788581 0.414990
vn 0.242612 -0.970047 -0.012201
vn 0.324886 -0.571476 -0.753568
vn -0.619892 -0.285796 -0.730790
vn -0.821391 0.060999 -0.567094
vn -0.626816 0.439011 -0.643716
vn 0.735604 0.567503 -0.369902
vn 0.598404 0.225502 -0.768805
vn 0.359884 0.381883 -0.851263
vn 0.848526 0.288309 0.443714
vn 0.987390 0.154298 0.035400
vn 0.891123 0.453712 -0.006800
vn 0.987390 0.154298 0.035400
vn 0.850082 -0.486290 -0.202196
vn 0.898301 0.242500 -0.366400
vn 0.324886 -0.571476 -0.753568
vn 0.850082 -0.486290 -0.202196
vn 0.453789 -0.788581 0.414990
vn -0.747418 -0.553314 0.367709
vn -0.881095 -0.341198 0.327498
vn -0.920088 -0.356095 -0.163198
vn -0.538902 -0.361401 0.760903
vn -0.747418 -0.553314 0.367709
vn -0.598571 -0.705966 0.378582
vn 0.168503 0.787215 -0.593211
vn -0.174402 0.304804 -0.936311
vn -0.411989 0.708082 -0.573485
vn 0.848526 0.288309 0.443714
vn 0.573703 0.118101 0.810504
vn 0.619477 -0.215792 0.754773
vn 0.105804 -0.501720 0.858535
vn 0.453789 -0.788581 0.414990
vn 0.619477 -0.215792 0.754773
vn -0.598571 -0.705966 0.378582
vn -0.172107 -0.829633 0.531121
vn -0.538902 -0.361401 0.760903
vn -0.821391 0.060999 -0.567094
vn -0.920088 -0.356095 -0.163198
vn -0.973230 0.227907 0.029701
vn -0.356098 0.855596 0.375698
vn -0.422884 0.902566 -0.080897
vn -0.692303 0.687603 0.218901
vn 0.573703 0.118101 0.810504
vn 0.268098 -0.132099 0.954292
vn 0.619477 -0.215792 0.754773
vn -0.172107 -0.829633 0.531121
vn 0.242612 -0.970047 -0.012201
vn 0.453789 -0.788581 0.414990
vn 0.619477 -0.215792 0.754773
vn 0.268098 -0.132099 0.954292
vn 0.105804 -0.501720 0.858535
vn -0.973230 0.227907 0.029701
vn -0.692303 0.687603 0.218901
vn -0.795974 0.568182 -0.208793
vn 0.891123 0.453712 -0.006800
vn 0.735604 0.567503 -0.369902
vn 0.484520 0.839035 0.247510
vn 0.878623 -0.380810 0.288107
vn 0.854321 0.097002 0.510613
vn 0.619477 -0.215792 0.754773
vn 0.453789 -0.788581 0.414990
vn 0.105804 -0.501720 0.858535
vn -0.172107 -0.829633 0.531121
vn -0.747418 -0.553314 0.367709
vn -0.538902 -0.361401 0.760903
vn -0.881095 -0.341198 0.327498
vn -0.881095 -0.341198 0.327498
vn -0.832285 0.138798 0.536690
vn -0.973230 0.227907 0.029701
vn 0.233513 0.001400 0.972353
vn -0.074800 -0.194201 0.978106
vn 0.268098 -0.132099 0.954292
vn -0.535900 0.569700 0.623100
vn -0.356098 0.855596 0.375698
vn -0.692303 0.687603 0.218901
vn -0.356098 0.855596 0.375698
vn -0.122602 0.991617 0.040801
vn -0.422884 0.902566 -0.080897
vn 0.735604 0.567503 -0.369902
vn 0.376910 0.922823 -0.079602
vn 0.484520 0.839035 0.247510
vn 0.835724 0.460413 0.299309
vn 0.585487 0.498389 0.639386
vn 0.848526 0.288309 0.443714
vn 0.105804 -0.501720 0.858535
vn 0.268098 -0.132099 0.954292
vn -0.074800 -0.194201 0.978106
vn 0.376910 0.922823 -0.079602
vn -0.122602 0.991617 0.040801
vn 0.484520 0.839035 0.247510
vn -0.538902 -0.361401 0.760903
vn -0.480704 -0.039200 0.876006
vn -0.832285 0.138798 0.536690
vn -0.535900 0.569700 0.623100
vn -0.832285 0.138798 0.536690
vn -0.480704 -0.039200 0.876006
vn 0.585487 0.498389 0.639386
vn 0.835724 0.460413 0.299309
vn 0.484520 0.839035 0.247510
vn 0.573703 0.118101 0.810504
vn 0.585487 0.498389 0.639386
vn 0.275296 0.273996 0.921487
vn -0.535900 0.569700 0.623100
vn -0.480704 -0.039200 0.876006
vn -0.179096 0.168596 0.969278
vn -0.037900 0.783691 0.619993
vn 0.585487 0.498389 0.639386
vn 0.484520 0.839035 0.247510
vn 0.275296 0.273996 0.921487
vn -0.037900 0.783691 0.619993
vn -0.120207 0.360822 0.924856
vn -0.120207 0.360822 0.924856
vn -0.179096 0.168596 0.969278
vn 0.275296 0.273996 0.921487
vn -0.037900 0.783691 0.619993
vn 0.275296 0.273996 0.921487
vn 0.585487 0.498389 0.639386
vn 0.324886 -0.571476 -0.753568
vn -0.139504 -0.319309 -0.937326
vn -0.115401 -0.024700 -0.993012
vn 0.151406 0.077403 -0.985436
vn -0.920088 -0.356095 -0.163198
vn -0.619892 -0.285796 -0.730790
vn -0.504972 -0.583568 -0.635965
vn -0.610086 -0.785782 -0.101698
vn -0.139504 -0.319309 -0.937326
vn -0.619892 -0.285796 -0.730790
vn -0.115401 -0.024700 -0.993012
vn 0.735604 0.567503 -0.369902
vn 0.898301 0.242500 -0.366400
vn 0.598404 0.225502 -0.768805
vn -0.504972 -0.583568 -0.635965
vn -0.016700 -0.914298 -0.404699
vn -0.207696 -0.971183 -0.116898
vn -0.610086 -0.785782 -0.101698
vn 0.151406 0.077403 -0.985436
vn -0.174402 0.304804 -0.936311
vn 0.359884 0.381883 -0.851263
vn 0.151406 0.077403 -0.985436
vn 0.359884 0.381883 -0.851263
vn 0.598404 0.225502 -0.768805
vn -0.747418 -0.553314 0.367709
vn -0.920088 -0.356095 -0.163198
vn -0.610086 -0.785782 -0.101698
vn 0.898301 0.242500 -0.366400
vn 0.891123 0.453712 -0.006800
vn 0.987390 0.154298 0.035400
vn 0.627197 -0.274999 -0.728697
vn 0.898301 0.242500 -0.366400
vn 0.850082 -0.486290 -0.202196
vn 0.627197 -0.274999 -0.728697
vn 0.850082 -0.486290 -0.202196
vn 0.324886 -0.571476 -0.753568
vn -0.795974 0.568182 -0.208793
vn -0.422884 0.902566 -0.080897
vn -0.411989 0.708082 -0.573485
vn -0.626816 0.439011 -0.643716
vn -0.920088 -0.356095 -0.163198
vn -0.821391 0.060999 -0.567094
vn -0.619892 -0.285796 -0.730790
vn -0.172107 -0.829633 0.531121
vn -0.598571 -0.705966 0.378582
vn -0.610086 -0.785782 -0.101698
vn -0.207696 -0.971183 -0.116898
vn -0.207696 -0.971183 -0.116898
vn -0.016700 -0.914298 -0.404699
vn 0.242612 -0.970047 -0.012201
vn 0.359884 0.381883 -0.851263
vn -0.174402 0.304804 -0.936311
vn 0.168503 0.787215 -0.593211
vn -0.422884 0.902566 -0.080897
vn -0.795974 0.568182 -0.208793
vn -0.692303 0.687603 0.218901
vn 0.987390 0.154298 0.035400
vn 0.878623 -0.380810 0.288107
vn 0.850082 -0.486290 -0.202196
vn 0.453789 -0.788581 0.414990
vn 0.850082 -0.486290 -0.202196
vn 0.878623 -0.380810 0.288107
vn -0.172107 -0.829633 0.531121
vn -0.207696 -0.971183 -0.116898
vn 0.242612 -0.970047 -0.012201
vn -0.795974 0.568182 -0.208793
vn -0.626816 0.439011 -0.643716
vn -0.821391 0.060999 -0.567094
vn -0.973230 0.227907 0.029701
vn 0.168503 0.787215 -0.593211
vn -0.411989 0.708082 -0.573485
vn -0.422884 0.902566 -0.080897
vn -0.122602 0.991617 0.040801
vn -0.538902 -0.361401 0.760903
vn -0.172107 -0.829633 0.531121
vn 0.105804 -0.501720 0.858535
vn -0.074800 -0.194201 0.978106
vn 0.359884 0.381883 -0.851263
vn 0.168503 0.787215 -0.593211
vn 0.735604 0.567503 -0.369902
vn 0.848526 0.288309 0.443714
vn 0.619477 -0.215792 0.754773
vn 0.854321 0.097002 0.510613
vn 0.453789 -0.788581 0.414990
vn 0.878623 -0.380810 0.288107
vn 0.619477 -0.215792 0.754773
vn -0.692303 0.687603 0.218901
vn -0.973230 0.227907 0.029701
vn -0.832285 0.138798 0.536690
vn -0.535900 0.569700 0.623100
vn -0.920088 -0.356095 -0.163198
vn -0.881095 -0.341198 0.327498
vn -0.973230 0.227907 0.029701
vn -0.122602 0.991617 0.040801
vn 0.376910 0.922823 -0.079602
vn 0.168503 0.787215 -0.593211
vn 0.168503 0.787215 -0.593211
vn 0.376910 0.922823 -0.079602
vn 0.735604 0.567503 -0.369902
vn 0.848526 0.288309 0.443714
vn 0.891123 0.453712 -0.006800
vn 0.835724 0.460413 0.299309
vn -0.538902 -0.361401 0.760903
vn -0.074800 -0.194201 0.978106
vn -0.480704 -0.039200 0.876006
vn -0.535900 0.569700 0.623100
vn -0.120207 0.360822 0.924856
vn -0.037900 0.783691 0.619993
vn -0.356098 0.855596 0.375698
vn 0.835724 0.460413 0.299309
vn 0.891123 0.453712 -0.006800
vn 0.484520 0.839035 0.247510
vn -0.881095 -0.341198 0.327498
vn -0.538902 -0.361401 0.760903
vn -0.832285 0.138798 0.536690
vn 0.268098 -0.132099 0.954292
vn 0.573703 0.118101 0.810504
vn 0.233513 0.001400 0.972353
vn -0.037900 0.783691 0.619993
vn -0.122602 0.991617 0.040801
vn -0.356098 0.855596 0.375698
vn -0.074800 -0.194201 0.978106
vn 0.233513 0.001400 0.972353
vn -0.179096 0.168596 0.969278
vn -0.120207 0.360822 0.924856
vn -0.535900 0.569700 0.623100
vn -0.179096 0.168596 0.969278
vn 0.484520 0.839035 0.247510
vn -0.122602 0.991617 0.040801
vn -0.037900 0.783691 0.619993
vn 0.233513 0.001400 0.972353
vn 0.573703 0.118101 0.810504
vn 0.275296 0.273996 0.921487
vn -0.480704 -0.039200 0.876006
vn -0.074800 -0.194201 0.978106
vn -0.179096 0.168596 0.969278
vn 0.275296 0.273996 0.921487
vn -0.179096 0.168596 0.969278
vn 0.233513 0.001400 0.972353
vn 0.022899 -0.692579 -0.720978
vn -0.016700 -0.914298 -0.404699
vn -0.504972 -0.583568 -0.635965
vn -0.139504 -0.319309 -0.937326
vn 0.854321 0.097002 0.510613
vn 0.878623 -0.380810 0.288107
vn 0.987390 0.154298 0.035400
vn 0.848526 0.288309 0.443714
vn 0.573703 0.118101 0.810504
vn 0.848526 0.288309 0.443714
vn 0.585487 0.498389 0.639386
s off
g hand_right2:Mesh
usemtl hand_right2:STONE
f 6/1/1 2/2/2 4/3/3
f 9/4/4 4/3/5 3/5/6
f 7/6/7 5/7/8 2/2/9
f 1/8/10 5/7/11 8/9/12
f 1/8/13 8/9/14 3/5/15
f 10/10/16 4/3/17 9/4/18
f 9/4/19 16/11/20 10/10/21
f 14/12/22 6/1/23 4/3/24
f 18/13/25 11/14/26 37/15/27
f 20/16/28 8/9/29 5/7/30
f 8/9/31 20/16/32 21/17/33
f 13/18/34 22/19/35 16/11/36
f 4/3/37 17/20/38 14/12/39
f 29/21/40 17/20/41 4/3/42
f 5/7/43 19/22/44 20/16/45
f 13/18/46 9/4/47 12/23/48
f 28/24/49 23/25/50 22/19/51
f 23/25/52 24/26/53 16/11/54
f 4/3/55 24/26/56 29/21/57
f 18/13/58 30/27/59 15/28/60
f 31/29/61 18/30/62 37/31/63
f 32/32/64 8/9/65 21/17/66
f 28/24/67 34/33/68 43/34/69
f 38/35/70 29/36/71 43/34/72
f 37/31/73 36/37/74 31/29/75
f 19/22/76 15/28/77 39/38/78
f 42/39/79 27/40/80 33/41/81
f 34/33/82 45/42/83 43/34/84
f 36/37/85 17/43/86 29/36/87
f 43/34/88 45/42/89 38/35/90
f 39/38/91 33/41/92 26/44/93
f 22/19/94 13/18/95 47/45/96
f 35/46/97 44/47/98 43/34/99
f 29/36/100 38/35/101 36/37/102
f 18/30/103 31/29/104 30/48/105
f 30/27/106 54/49/107 39/38/108
f 52/50/109 50/51/110 45/42/111
f 51/52/112 42/53/113 33/54/114
f 42/53/115 40/55/116 27/56/117
f 13/18/118 46/57/119 47/45/120
f 41/58/121 48/59/122 28/24/123
f 38/35/124 45/42/125 50/51/126
f 46/57/127 40/55/128 47/45/129
f 31/29/130 49/60/131 54/61/132
f 51/52/133 54/61/134 49/60/135
f 48/59/136 41/58/137 47/45/138
f 34/33/139 48/59/140 57/62/141
f 51/52/142 49/60/143 56/63/144
f 55/64/145 48/59/146 47/45/147
f 57/62/148 55/64/149 53/65/150
f 53/65/151 56/63/152 57/62/153
f 55/64/154 57/62/155 48/59/156
f 4/3/157 2/2/158 1/8/159 3/5/160
f 15/28/161 5/7/162 7/6/163 11/14/164
f 2/2/165 5/7/166 1/8/167
f 13/18/168 16/11/169 9/4/170
f 7/6/171 14/12/172 25/66/173 11/14/174
f 3/5/175 8/9/176 12/23/177
f 3/5/178 12/23/179 9/4/180
f 18/13/181 15/28/182 11/14/183
f 16/11/184 22/19/185 23/25/186
f 10/10/187 16/11/188 24/26/189
f 10/10/190 24/26/191 4/3/192
f 26/44/193 27/40/194 21/17/195 20/16/196
f 15/28/197 19/22/198 5/7/199
f 36/67/200 37/15/201 11/14/202 25/66/203
f 25/66/204 14/12/205 17/20/206
f 12/23/207 8/9/208 32/32/209
f 27/40/210 26/44/211 33/41/212
f 23/25/213 35/46/214 24/26/215
f 29/36/216 24/68/217 35/46/218
f 36/67/219 25/66/220 17/20/221
f 26/44/222 20/16/223 19/22/224 39/38/225
f 32/32/226 21/17/227 27/40/228 40/55/229
f 31/29/230 36/37/231 38/35/232 50/51/233
f 12/23/234 32/32/235 13/18/236
f 28/24/237 43/34/238 44/47/239
f 29/36/240 35/46/241 43/34/242
f 33/41/243 39/38/244 54/49/245 51/69/246
f 15/28/247 30/27/248 39/38/249
f 40/55/250 46/57/251 32/32/252
f 32/32/253 46/57/254 13/18/255
f 28/24/256 22/19/257 41/58/258
f 31/29/259 50/51/260 49/60/261
f 51/52/262 53/65/263 55/64/264 42/53/265
f 41/58/266 22/19/267 47/45/268
f 30/48/269 31/29/270 54/61/271
f 45/42/272 34/33/273 52/50/274
f 55/64/275 40/55/276 42/53/277
f 50/51/278 52/50/279 56/63/280
f 53/65/281 51/52/282 56/63/283
f 47/45/284 40/55/285 55/64/286
f 52/50/287 34/33/288 57/62/289
f 49/60/290 50/51/291 56/63/292
f 57/62/293 56/63/294 52/50/295
f 6/1/296 14/12/297 7/6/298 2/2/299
f 44/47/300 35/46/301 23/25/302 28/24/303
f 34/33/304 28/24/305 48/59/306
